<svg aria-hidden="true" style="position: absolute; width: 0; height: 0; overflow: hidden;" version="1.1" xmlns="http://www.w3.org/2000/svg" xmlns:xlink="http://www.w3.org/1999/xlink">
<defs>
<symbol id="icon-linkedin-in-1" viewBox="0 0 28 32">
<path d="M6.268 28h-5.805v-18.694h5.805v18.694zM3.362 6.757c-1.856 0-3.362-1.537-3.362-3.394 0-0.892 0.354-1.747 0.985-2.377s1.486-0.985 2.377-0.985c0.892 0 1.747 0.354 2.377 0.985s0.985 1.486 0.985 2.377c0 1.856-1.506 3.394-3.362 3.394zM27.994 28h-5.793v-9.1c0-2.169-0.044-4.95-3.018-4.95-3.018 0-3.481 2.356-3.481 4.794v9.256h-5.799v-18.694h5.567v2.55h0.081c0.775-1.469 2.668-3.019 5.492-3.019 5.875 0 6.955 3.869 6.955 8.894v10.269h-0.006z"></path>
</symbol>
<symbol id="icon-twitter-1" viewBox="0 0 32 32">
<path d="M28.711 9.483c0.020 0.284 0.020 0.569 0.020 0.853 0 8.67-6.599 18.66-18.66 18.66-3.716 0-7.168-1.076-10.071-2.944 0.528 0.061 1.036 0.081 1.584 0.081 3.066 0 5.888-1.035 8.142-2.802-2.883-0.061-5.3-1.949-6.132-4.548 0.406 0.061 0.812 0.101 1.239 0.101 0.589 0 1.178-0.081 1.726-0.223-3.005-0.609-5.259-3.249-5.259-6.437v-0.081c0.873 0.487 1.888 0.792 2.964 0.832-1.766-1.178-2.924-3.188-2.924-5.462 0-1.218 0.325-2.335 0.893-3.31 3.228 3.98 8.081 6.579 13.523 6.863-0.101-0.487-0.162-0.995-0.162-1.502 0-3.614 2.924-6.558 6.558-6.558 1.888 0 3.594 0.792 4.792 2.071 1.482-0.284 2.904-0.832 4.162-1.584-0.487 1.523-1.523 2.802-2.883 3.614 1.32-0.142 2.599-0.508 3.777-1.015-0.893 1.299-2.010 2.457-3.289 3.391z"></path>
</symbol>
<symbol id="icon-instagram-1" viewBox="0 0 28 32">
<path d="M14.229 8.812c-4.038 0-7.295 3.206-7.295 7.181s3.257 7.181 7.295 7.181c4.038 0 7.295-3.206 7.295-7.181s-3.257-7.181-7.295-7.181zM14.229 20.662c-2.61 0-4.743-2.094-4.743-4.669s2.127-4.669 4.743-4.669 4.743 2.094 4.743 4.669c0 2.575-2.133 4.669-4.743 4.669zM23.524 8.518c0 0.931-0.762 1.675-1.701 1.675-0.946 0-1.701-0.75-1.701-1.675s0.762-1.675 1.701-1.675c0.94 0 1.701 0.75 1.701 1.675zM28.356 10.218c-0.108-2.244-0.629-4.231-2.299-5.869-1.663-1.638-3.683-2.15-5.962-2.263-2.349-0.131-9.391-0.131-11.74 0-2.273 0.106-4.292 0.619-5.962 2.256s-2.184 3.625-2.298 5.869c-0.133 2.313-0.133 9.244 0 11.556 0.108 2.244 0.629 4.231 2.298 5.869s3.683 2.15 5.962 2.263c2.349 0.131 9.39 0.131 11.74 0 2.279-0.106 4.298-0.619 5.962-2.263 1.663-1.637 2.184-3.625 2.299-5.869 0.133-2.313 0.133-9.237 0-11.55zM25.321 24.25c-0.495 1.225-1.454 2.169-2.705 2.663-1.873 0.731-6.317 0.563-8.387 0.563s-6.521 0.163-8.387-0.563c-1.244-0.487-2.203-1.431-2.705-2.663-0.743-1.844-0.571-6.219-0.571-8.256s-0.165-6.419 0.571-8.256c0.495-1.225 1.454-2.169 2.705-2.662 1.873-0.731 6.317-0.563 8.387-0.563s6.521-0.162 8.387 0.563c1.244 0.487 2.203 1.431 2.705 2.662 0.743 1.844 0.572 6.219 0.572 8.256s0.171 6.419-0.572 8.256z"></path>
</symbol>
<symbol id="icon-facebook-f-1" viewBox="0 0 20 32">
<path d="M17.63 18l0.898-5.791h-5.615v-3.758c0-1.584 0.784-3.129 3.299-3.129h2.553v-4.931c0 0-2.317-0.391-4.532-0.391-4.624 0-7.647 2.774-7.647 7.795v4.414h-5.14v5.791h5.14v14h6.327v-14h4.717z"></path>
</symbol>
<symbol id="icon-Telegram" viewBox="0 0 32 32">
<path fill="#fff" style="fill: var(--color1, #fff)" d="M31.132 1.087c0.631 0.417 0.963 1.139 0.844 1.86l-4 24.803c-0.094 0.578-0.462 1.085-1 1.371s-1.181 0.322-1.75 0.095l-7.894-3.13-2.506 4.442c-0.325 0.578-1.019 0.87-1.688 0.71s-1.138-0.733-1.138-1.389v-5.724c0-0.316 0.113-0.626 0.319-0.876l10.331-12.676c0.156-0.423-0.406-0.853-0.813-0.501l-13.187 11.376c-0.575 0.495-1.394 0.632-2.112 0.346l-5.313-2.111c-0.7-0.28-1.175-0.912-1.219-1.64s0.344-1.413 1.006-1.777l28-15.264c0.669-0.364 1.494-0.328 2.125 0.083h-0.006z"></path>
</symbol>
<symbol id="icon-letter" viewBox="0 0 35 32">
<path fill="#cfcfcf" style="fill: var(--color2, #cfcfcf)" d="M0 6.213c0-2.845 1.97-5.152 4.4-5.152h26.4c2.427 0 4.4 2.306 4.4 5.152v20.606c0 2.841-1.973 5.152-4.4 5.152h-26.4c-2.43 0-4.4-2.31-4.4-5.152v-20.606zM3.3 6.213v1.779l11.859 11.398c1.416 1.368 3.465 1.368 4.881 0l11.859-11.398v-1.851c0-0.636-0.495-1.288-1.1-1.288h-26.4c-0.608 0-1.1 0.652-1.1 1.288v0.072zM3.3 12.991v13.829c0 0.708 0.492 1.288 1.1 1.288h26.4c0.605 0 1.1-0.58 1.1-1.288v-13.829l-9.763 9.385c-2.64 2.536-6.435 2.536-9.137 0l-9.701-9.385z"></path>
</symbol>
<symbol id="icon-Return" viewBox="0 0 26 32">
<path stroke-linejoin="round" stroke-linecap="round" stroke-miterlimit="4" stroke-width="2.0645" d="M6.308 30.968l-5.276-5.276 5.276-5.276"></path>
<path stroke-linejoin="round" stroke-linecap="round" stroke-miterlimit="4" stroke-width="2.0645" d="M24.774 17.778v2.638c0 1.399-0.556 2.741-1.545 3.731s-2.331 1.545-3.731 1.545h-18.466"></path>
<path stroke-linejoin="round" stroke-linecap="round" stroke-miterlimit="4" stroke-width="2.0645" d="M19.498 1.95l5.276 5.276-5.276 5.276"></path>
<path stroke-linejoin="round" stroke-linecap="round" stroke-miterlimit="4" stroke-width="2.0645" d="M1.032 15.14v-2.638c0-1.399 0.556-2.741 1.545-3.731s2.331-1.545 3.731-1.545h18.466"></path>
</symbol>
<symbol id="icon-Support" viewBox="0 0 32 32">
<path stroke-linejoin="round" stroke-linecap="round" stroke-miterlimit="4" stroke-width="2.2069" d="M16 30.897c8.227 0 14.897-6.669 14.897-14.897s-6.669-14.897-14.897-14.897c-8.227 0-14.897 6.669-14.897 14.897s6.669 14.897 14.897 14.897z"></path>
<path stroke-linejoin="round" stroke-linecap="round" stroke-miterlimit="4" stroke-width="2.2069" d="M16 21.959c3.291 0 5.959-2.668 5.959-5.959s-2.668-5.959-5.959-5.959c-3.291 0-5.959 2.668-5.959 5.959s2.668 5.959 5.959 5.959z"></path>
<path stroke-linejoin="round" stroke-linecap="round" stroke-miterlimit="4" stroke-width="2.2069" d="M20.216 20.216l6.316 6.316"></path>
<path stroke-linejoin="round" stroke-linecap="round" stroke-miterlimit="4" stroke-width="2.2069" d="M5.468 26.532l6.316-6.316"></path>
<path stroke-linejoin="round" stroke-linecap="round" stroke-miterlimit="4" stroke-width="2.2069" d="M20.216 11.784l6.316-6.316"></path>
<path stroke-linejoin="round" stroke-linecap="round" stroke-miterlimit="4" stroke-width="2.2069" d="M20.216 11.784l5.258-5.259"></path>
<path stroke-linejoin="round" stroke-linecap="round" stroke-miterlimit="4" stroke-width="2.2069" d="M5.468 5.468l6.316 6.316"></path>
</symbol>
<symbol id="icon-Shop-bag" viewBox="0 0 30 32">
<path stroke-linejoin="round" stroke-linecap="round" stroke-miterlimit="4" stroke-width="2.8444" d="M6.4 2.133l-4.267 5.689v19.911c0 0.754 0.3 1.478 0.833 2.011s1.257 0.833 2.011 0.833h19.911c0.754 0 1.478-0.3 2.011-0.833s0.833-1.257 0.833-2.011v-19.911l-4.267-5.689h-17.067z"></path>
<path stroke-linejoin="round" stroke-linecap="round" stroke-miterlimit="4" stroke-width="2.8444" d="M20.622 13.511c0 1.509-0.599 2.956-1.666 4.023s-2.514 1.666-4.023 1.666c-1.509 0-2.956-0.599-4.023-1.666s-1.666-2.514-1.666-4.023"></path>
<path stroke-linejoin="round" stroke-linecap="round" stroke-miterlimit="4" stroke-width="2.8444" d="M2.133 7.822h25.6"></path>
</symbol>
<symbol id="icon-Truck" viewBox="0 0 39 32">
<path stroke-linejoin="round" stroke-linecap="round" stroke-miterlimit="4" stroke-width="3.1097" d="M29.417 29.793c2.147 0 3.887-1.74 3.887-3.887s-1.74-3.887-3.887-3.887c-2.147 0-3.887 1.74-3.887 3.887s1.74 3.887 3.887 3.887z"></path>
<path stroke-linejoin="round" stroke-linecap="round" stroke-miterlimit="4" stroke-width="3.1097" d="M9.204 29.793c2.147 0 3.887-1.74 3.887-3.887s-1.74-3.887-3.887-3.887-3.887 1.74-3.887 3.887c0 2.147 1.74 3.887 3.887 3.887z"></path>
<path stroke-linejoin="round" stroke-linecap="round" stroke-miterlimit="4" stroke-width="3.1097" d="M25.53 9.58h6.219l4.665 4.665v7.774h-10.884v-12.439z"></path>
<path stroke-linejoin="round" stroke-linecap="round" stroke-miterlimit="4" stroke-width="3.1097" d="M25.53 1.806h-23.323v20.213h23.323v-20.213z"></path>
</symbol>
<symbol id="icon-plus" viewBox="0 0 32 32">
<path fill="none" stroke="#fff" style="stroke: var(--color1, #fff)" stroke-linejoin="round" stroke-linecap="round" stroke-miterlimit="4" stroke-width="4" d="M16 2v28"></path>
<path fill="none" stroke="#fff" style="stroke: var(--color1, #fff)" stroke-linejoin="round" stroke-linecap="round" stroke-miterlimit="4" stroke-width="4" d="M2 16h28"></path>
</symbol>
<symbol id="icon" viewBox="0 0 32 32">
<path fill="#6a696d" style="fill: var(--color3, #6a696d)" d="M27.76 25.29c0 4.944-6.78 5.516-11.879 5.516l-0.365-0c-3.248-0.008-11.517-0.213-11.517-5.545 0-4.843 6.508-5.49 11.567-5.515l0.679-0c3.248 0.008 11.514 0.213 11.514 5.545zM15.882 21.994c-6.391 0-9.632 1.098-9.632 3.265 0 2.187 3.24 3.296 9.632 3.296 6.39 0 9.629-1.098 9.629-3.266 0-2.187-3.238-3.295-9.629-3.295zM15.882 1c4.392 0 7.963 3.573 7.963 7.965s-3.572 7.963-7.963 7.963h-0.048c-4.383-0.014-7.934-3.588-7.919-7.968 0-4.388 3.573-7.96 7.967-7.96zM15.882 3.142c-3.211 0-5.825 2.611-5.825 5.823-0.010 3.201 2.583 5.811 5.781 5.823l0.043 1.071v-1.071c3.21 0 5.822-2.613 5.822-5.823 0-3.212-2.611-5.823-5.822-5.823z"></path>
</symbol>
</defs>
</svg>
